<?xml version="1.0" encoding="utf-8"?>
<!-- Generator: Adobe Illustrator 22.1.0, SVG Export Plug-In . SVG Version: 6.00 Build 0)  -->
<svg version="1.1" id="Layer_1" xmlns="http://www.w3.org/2000/svg" xmlns:xlink="http://www.w3.org/1999/xlink" x="0px" y="0px"
	 viewBox="0 0 504 186" style="enable-background:new 0 0 504 186;" xml:space="preserve">
<style type="text/css">
	.st0{fill:none;stroke:#020202;stroke-miterlimit:10;}
</style>
<path class="st0" d="M236,177c-164,0-192-7-192-7c-19-4-40-16-40-28c0-27,5.5-40.3,13-51c7-10,22-16,35-21l87-20c0,0,67-35,91-39
	c11.4-1.9,19.9-3.6,74-6s133,7,162,16c0,0-10.3,10.3-6,14c23,20,34.3,42.4,36,56C505,163,477,177,236,177z"/>
</svg>
